HIERARCHY
ROOT Hips
{
	OFFSET -0.179506 -22.333345 2.821913
	CHANNELS 6 Xposition Yposition Zposition Zrotation Yrotation Xrotation 
	JOINT LeftUpLeg
	{
		OFFSET 6.951974 -9.140623 -0.681533
		CHANNELS 3 Zrotation Yrotation Xrotation
		JOINT LeftLeg
		{
			OFFSET 3.427654 -37.519855 -0.449580
			CHANNELS 3 Zrotation Yrotation Xrotation
			JOINT LeftFoot
			{
				OFFSET -1.359570 -39.796059 -4.369333
				CHANNELS 3 Zrotation Yrotation Xrotation
				JOINT LeftToe
				{
					OFFSET 2.635814 -5.579078 11.928840
					CHANNELS 3 Zrotation Yrotation Xrotation
					End Site
					{
						OFFSET 0.000000 0.000000 0.000000
					}
				}
			}
		}
	}
	JOINT RightUpLeg
	{
		OFFSET -6.767048 -9.052170 -0.431982
		CHANNELS 3 Zrotation Yrotation Xrotation
		JOINT RightLeg
		{
			OFFSET -3.829005 -38.256897 -0.885003
			CHANNELS 3 Zrotation Yrotation Xrotation
			JOINT RightFoot
			{
				OFFSET 1.577377 -39.841461 -4.231180
				CHANNELS 3 Zrotation Yrotation Xrotation
				JOINT RightToe
				{
					OFFSET -2.537174 -4.814398 12.334795
					CHANNELS 3 Zrotation Yrotation Xrotation
					End Site
					{
						OFFSET 0.000000 0.000000 0.000000
					}
				}
			}
		}
	}
	JOINT Spine
	{
		OFFSET -0.253288 10.896323 -2.669631
		CHANNELS 3 Zrotation Yrotation Xrotation
		JOINT Spine1
		{
			OFFSET 0.548704 13.518043 0.109247
			CHANNELS 3 Zrotation Yrotation Xrotation
			JOINT Spine2
			{
				OFFSET 0.145701 5.292222 2.542457
				CHANNELS 3 Zrotation Yrotation Xrotation
				JOINT Neck
				{
					OFFSET -0.277840 21.387037 -4.285703
					CHANNELS 3 Zrotation Yrotation Xrotation
					JOINT Head
					{
						OFFSET 0.515184 6.496960 5.134897
						CHANNELS 3 Zrotation Yrotation Xrotation
						End Site
						{
							OFFSET 0.000000 0.000000 0.000000
						}
					}
				}
				JOINT LeftShoulder
				{
					OFFSET 7.884473 12.174932 -3.408961
					CHANNELS 3 Zrotation Yrotation Xrotation
					JOINT LeftArm
					{
						OFFSET 9.097692 3.046888 -0.886815
						CHANNELS 3 Zrotation Yrotation Xrotation
						JOINT LeftForeArm
						{
							OFFSET 25.961220 -1.277207 -2.745643
							CHANNELS 3 Zrotation Yrotation Xrotation
							JOINT LeftHand
							{
								OFFSET 24.923361 0.898606 -0.117091
								CHANNELS 3 Zrotation Yrotation Xrotation
								End Site
								{
									OFFSET 0.000000 0.000000 0.000000
								}
							}
						}
					}
				}
				JOINT RightShoulder
				{
					OFFSET -8.175920 11.883285 -3.861528
					CHANNELS 3 Zrotation Yrotation Xrotation
					JOINT RightArm
					{
						OFFSET -9.601238 3.255117 -0.914307
						CHANNELS 3 Zrotation Yrotation Xrotation
						JOINT RightForeArm
						{
							OFFSET -25.374195 -1.332924 -2.140099
							CHANNELS 3 Zrotation Yrotation Xrotation
							JOINT RightHand
							{
								OFFSET -25.529810 0.777228 -0.555919
								CHANNELS 3 Zrotation Yrotation Xrotation
								End Site
								{
									OFFSET 0.000000 0.000000 0.000000
								}
							}
						}
					}
				}
			}
		}
	}
}
MOTION
Frames: 12
Frame Time: 0.033333
300.899780 291.646484 94.934959 -53.025291 0.259476 84.892779 0.082510 1.611948 7.395290 -1.816606 -3.836516 -1.343590 4.191919 8.029848 -6.531617 nan nan nan 0.266859 -2.981733 6.410924 2.784514 0.532886 0.359184 6.157767 -1.526658 -2.507974 nan nan nan 0.315859 1.348812 6.505997 1.217714 -2.819797 2.746780 0.410387 -0.997721 0.798793 -0.179483 -0.222874 3.695733 -0.806181 -3.394861 3.621749 -28.519537 2.331404 2.284685 -59.210240 -7.903926 9.742566 7.611339 -23.129998 5.270845 -9.145945 -5.048593 -7.567446 29.364540 1.356277 3.435982 59.793450 7.072562 10.888547 -18.685724 20.768723 -15.772481 8.041208 3.299039 -13.676064 
300.858978 291.659393 94.897667 -53.133155 0.317481 84.918437 0.219942 1.516611 7.485922 -1.877263 -3.740703 -1.517245 4.162357 8.104629 -6.451465 nan nan nan 0.421453 -2.803789 6.370800 2.706954 0.604374 0.424989 6.120454 -1.646427 -2.565601 nan nan nan 0.260501 1.483291 6.570306 1.246661 -2.674503 2.741956 0.423454 -0.918337 0.871551 0.118945 -0.123294 3.265723 -0.779436 -3.442481 3.728979 -28.565672 2.188335 2.312113 -58.731540 -8.223123 9.855376 7.540390 -23.292957 5.876661 -9.517983 -5.282327 -6.067887 29.346385 1.097667 3.093422 59.802663 6.916004 10.814400 -18.543752 20.972191 -15.619968 8.182520 3.393299 -13.353817 
300.832764 291.636139 94.904320 -53.150793 0.299450 84.967957 0.192423 1.424625 7.516056 -1.884965 -3.736319 -1.652596 4.192122 8.188028 -6.375930 nan nan nan 0.403150 -2.747295 6.266839 2.728715 0.563615 0.555441 6.025045 -1.667778 -2.563508 nan nan nan 0.280418 1.439386 6.448220 1.242766 -2.672026 2.758369 0.480703 -0.951315 0.828968 -0.096728 -0.218398 3.545881 -0.804593 -3.347957 3.626048 -28.399572 2.259020 2.573119 -59.375753 -8.092384 9.749144 7.697455 -23.243710 5.162732 -9.325332 -5.191445 -7.347397 29.245203 1.213205 3.367958 59.891542 7.011713 10.778547 -18.664549 20.907232 -15.741504 8.109190 3.291977 -13.668566 
300.813965 291.629791 94.892372 -53.132539 0.280891 84.966399 0.178640 1.481154 7.515070 -1.855966 -3.797976 -1.663660 4.148820 8.139852 -6.349956 nan nan nan 0.418700 -2.718993 6.237291 2.705106 0.562644 0.628434 5.965473 -1.703642 -2.605937 nan nan nan 0.321283 1.426587 6.501899 1.212931 -2.666292 2.720005 0.380244 -0.953597 0.753961 0.020152 -0.160836 3.571918 -0.848266 -3.444358 3.781474 -28.602471 2.128068 2.562314 -58.707209 -8.117225 9.820820 7.649854 -23.393251 5.712782 -9.612364 -5.315713 -6.285178 29.415045 1.268791 3.412594 59.806092 6.877049 10.747057 -18.735241 20.910117 -15.761348 8.162579 3.352101 -13.401306 
300.808807 291.608246 94.887093 -53.077244 0.304549 85.016169 0.167701 1.382310 7.459438 -1.827963 -3.809210 -1.642794 4.178485 8.186325 -6.325414 nan nan nan 0.413555 -2.728303 6.151094 2.742719 0.561176 0.688421 5.899691 -1.701044 -2.607814 nan nan nan 0.378923 1.410997 6.477201 1.212164 -2.669837 2.681438 0.447492 -1.014174 0.723549 -0.169366 -0.254055 3.653687 -0.837494 -3.356865 3.700582 -28.412115 2.216465 2.681380 -59.427586 -8.053931 9.743668 7.774606 -23.179383 5.049614 -9.334603 -5.177416 -7.531860 29.285748 1.287296 3.516372 59.832672 6.964990 10.733255 -18.724055 20.790536 -15.835814 8.096660 3.276796 -13.734227 
300.796692 291.576752 94.905006 -53.014768 0.259320 85.122475 0.068926 1.245461 7.349144 -1.799038 -3.713068 -1.611244 4.269540 8.158148 -6.323720 nan nan nan 0.334867 -2.702743 6.016452 2.793255 0.672543 0.725074 5.974060 -1.984511 -2.719225 nan nan nan 0.492969 1.317682 6.284815 0.973084 -2.714996 2.829247 0.123677 -0.941166 1.120670 -0.815591 2.445606 2.024163 -0.273344 -2.019692 2.898997 -28.484506 2.065832 1.630158 -59.112334 -8.489214 10.216011 7.503277 -22.127123 6.713947 -9.295769 -6.455091 -6.966782 30.009431 1.208106 3.067671 59.497947 7.107520 11.179124 -18.798861 20.413103 -16.076139 7.903915 3.984804 -13.981947 
300.776489 291.537323 94.895905 -52.984613 0.250885 84.994645 0.065671 1.280023 7.549068 -1.801471 -3.771232 -1.690150 4.347818 8.143591 -6.338510 nan nan nan 0.305582 -2.730641 6.117321 2.798222 0.523135 0.831314 5.969219 -1.901781 -2.847208 nan nan nan 0.401474 1.372502 6.513467 1.101417 -2.721494 2.844687 0.244348 -0.864329 0.880412 -0.609809 1.075745 2.968287 -0.616654 -2.707570 3.092225 -28.612021 1.948567 1.917263 -59.043347 -8.617135 10.132362 7.537058 -22.184497 6.999542 -9.673675 -6.473512 -6.903053 29.624229 1.150783 3.092805 59.734920 6.943723 10.959901 -18.841979 20.548392 -15.989772 8.030425 3.931499 -14.010460 
300.739441 291.519257 94.906555 -52.998730 0.245399 85.023854 0.022764 1.215266 7.577768 -1.731087 -3.749836 -1.739633 4.339961 8.191059 -6.342190 nan nan nan 0.310055 -2.694454 6.073634 2.793404 0.547818 0.892508 6.023650 -1.920043 -2.908195 nan nan nan 0.427289 1.365896 6.396921 1.071751 -2.690342 2.839726 0.265357 -0.931616 0.893327 -0.689628 1.409830 2.996834 -0.640859 -2.445369 3.149958 -28.616838 1.956539 1.939715 -59.110546 -8.542867 10.112955 7.536143 -22.122310 6.820299 -9.588821 -6.461806 -7.162748 29.632999 1.208729 3.194971 59.704914 6.989689 11.009758 -18.862459 20.427119 -16.065925 7.953605 3.891998 -14.060839 
300.706085 291.495941 94.899559 -52.954156 0.268417 85.021282 0.009067 1.163262 7.592785 -1.656003 -3.762063 -1.729032 4.322902 8.186182 -6.381300 nan nan nan 0.330434 -2.725419 6.101886 2.809827 0.585315 0.893132 6.107985 -1.884496 -2.932789 nan nan nan 0.419398 1.378676 6.428049 1.091090 -2.702204 2.821945 0.336597 -0.940668 0.943313 -0.779540 1.419143 2.893434 -0.611216 -2.364221 3.061593 -28.423051 1.983252 1.960494 -59.518918 -8.508827 10.093535 7.415142 -22.063329 6.587022 -9.335273 -6.384640 -8.023546 29.531021 1.175993 3.187598 59.734026 6.990538 11.042901 -18.858575 20.466848 -16.065498 7.854252 3.877442 -14.294202 
300.632996 291.453278 94.898102 -52.831901 0.220281 85.029347 0.019405 1.214981 7.713263 -1.704074 -3.853519 -1.930242 4.238437 8.078625 -6.252319 nan nan nan 0.248050 -2.838910 6.173416 2.818456 0.571304 0.892887 6.131349 -1.863216 -2.890257 nan nan nan 0.385089 1.333546 6.311208 1.099521 -2.782982 2.834836 0.301881 -0.995643 0.918153 -0.770686 1.480777 3.030171 -0.606493 -2.425021 3.115916 -28.501647 1.984082 2.014753 -59.365978 -8.364127 10.118751 7.282250 -22.006168 6.715943 -9.347884 -6.422675 -7.930357 29.650313 1.230242 3.276678 59.655459 6.996134 11.022870 -18.871653 20.367275 -16.090711 7.795246 3.841976 -14.217800 
300.558319 291.476532 94.897705 -52.953816 0.216047 84.937147 0.027613 1.420868 7.820785 -1.609193 -3.780065 -1.845870 4.141264 7.981581 -6.396473 nan nan nan 0.290010 -2.830522 6.265815 2.763430 0.558183 0.912801 6.205136 -1.750818 -2.819455 nan nan nan 0.234561 1.365544 6.496696 1.144159 -2.694155 2.762256 0.346599 -0.923358 0.960502 -0.623472 1.632918 2.699428 -0.591206 -2.488001 3.237269 -28.394319 2.006075 1.999734 -59.388515 -8.195945 10.318594 7.096302 -22.092431 7.303387 -9.378806 -6.691232 -7.474974 29.759190 1.110055 3.141375 59.567490 6.987083 11.033621 -18.761593 20.395015 -15.952332 7.704669 3.895758 -14.135208 
300.527649 291.474854 94.903419 -52.976203 0.169319 85.042874 0.002809 1.473832 7.739210 -1.638445 -3.776364 -1.860249 4.198604 7.958868 -6.381183 nan nan nan 0.263055 -2.728355 6.115579 2.762261 0.515273 0.955343 6.152299 -1.772347 -2.773172 nan nan nan 0.196393 1.331961 6.444686 1.163818 -2.660184 2.676068 0.354656 -0.978455 0.833917 -0.649083 1.553397 2.915544 -0.742469 -2.584571 3.369075 -28.460158 2.103631 2.049632 -59.277391 -8.046204 10.330366 6.902788 -22.043658 7.579411 -9.595205 -6.714741 -7.154193 29.781316 1.126581 3.252115 59.567712 7.000907 11.016274 -18.766692 20.254498 -15.891871 7.733884 3.876436 -13.958446 
